<?xml version="1.0" encoding="utf-8" standalone="no"?>
<!DOCTYPE svg PUBLIC "-//W3C//DTD SVG 1.1//EN" "http://www.w3.org/Graphics/SVG/1.1/DTD/svg11.dtd">
<svg width="3000px" height="3000px" version="1.1" xmlns="http://www.w3.org/2000/svg" xmlns:xlink="http://www.w3.org/1999/xlink">
<g id="bg">
<rect x="0" y="0" width="3000px" height="3000px" style="fill:rgb(255,255,255);"/>
</g>
<g id="ideograms">
<path d="M1500.000,275.000 A1225.000,1225.000 40.000 0,1 2180.574,481.450 L2208.352,439.876 A1275.000,1275.000 0.000 0,0 1500.000,225.000 Z" style="stroke-linecap:round;fill:rgb(228,26,28);" />
<text x="1905.7" y="162.7" font-size="78.0px" font-family="CMUBright-Roman" style="text-anchor:middle;fill:rgb(0,0,0);" transform="rotate(376.9,1905.7,162.7)" >root<tspan baseline-shift="-40%" font-size="90%">a</tspan>ngle|5 OSDR|3 OSDR</text>
<path d="M2725.000,1500.000 A1225.000,1225.000 40.000 0,1 2580.354,2077.461 L2624.450,2101.031 A1275.000,1275.000 0.000 0,0 2775.000,1500.000 Z" style="stroke-linecap:round;fill:rgb(55,126,184);" />
<text x="2932.3" y="1858.8" font-size="78.0px" font-family="CMUBright-Roman" style="text-anchor:middle;fill:rgb(0,0,0);" transform="rotate(-75.9,2932.3,1858.8)" >tortosity|5 OSDR</text>
<path d="M1620.071,2719.101 A1225.000,1225.000 40.000 0,1 481.450,819.426 L439.876,791.648 A1275.000,1275.000 0.000 0,0 1624.972,2768.861 Z" style="stroke-linecap:round;fill:rgb(77,175,74);" />
<text x="233.6" y="2259.1" font-size="78.0px" font-family="CMUBright-Roman" style="text-anchor:middle;fill:rgb(0,0,0);" transform="rotate(59.1,233.6,2259.1)" >tortosity|5 OSDR|3 OSDR</text>
</g>
<g id="link2">
</g>
<g id="link1">
</g>
<g id="plot0">
<g id="plot0-axis">
</g>
<path d="M1500.000,397.500 A1102.500,1102.500 40.000 0,1 1608.064,402.809 L1614.925,333.146 A1172.500,1172.500 0.000 0,0 1500.000,327.500 Z" style="stroke-linecap:round;fill:rgb(253,174,107);" />
<path d="M1608.064,402.809 A1102.500,1102.500 40.000 0,1 1715.087,418.684 L1728.743,350.029 A1172.500,1172.500 0.000 0,0 1614.925,333.146 Z" style="stroke-linecap:round;fill:rgb(253,174,107);" />
<path d="M1715.087,418.684 A1102.500,1102.500 40.000 0,1 1820.039,444.973 L1840.359,377.987 A1172.500,1172.500 0.000 0,0 1728.743,350.029 Z" style="stroke-linecap:round;fill:rgb(253,174,107);" />
<path d="M1820.039,444.973 A1102.500,1102.500 40.000 0,1 1921.908,481.423 L1948.696,416.751 A1172.500,1172.500 0.000 0,0 1840.359,377.987 Z" style="stroke-linecap:round;fill:rgb(253,174,107);" />
<path d="M1921.908,481.423 A1102.500,1102.500 40.000 0,1 2019.715,527.682 L2052.713,465.947 A1172.500,1172.500 0.000 0,0 1948.696,416.751 Z" style="stroke-linecap:round;fill:rgb(253,174,107);" />
<path d="M2019.715,527.682 A1102.500,1102.500 40.000 0,1 2112.516,583.305 L2151.406,525.102 A1172.500,1172.500 0.000 0,0 2052.713,465.947 Z" style="stroke-linecap:round;fill:rgb(253,174,107);" />
<path d="M2602.500,1500.000 A1102.500,1102.500 40.000 0,1 2597.191,1608.064 L2666.854,1614.925 A1172.500,1172.500 0.000 0,0 2672.500,1500.000 Z" style="stroke-linecap:round;fill:rgb(253,174,107);" />
<path d="M2597.191,1608.064 A1102.500,1102.500 40.000 0,1 2581.316,1715.087 L2649.971,1728.743 A1172.500,1172.500 0.000 0,0 2666.854,1614.925 Z" style="stroke-linecap:round;fill:rgb(253,174,107);" />
<path d="M2581.316,1715.087 A1102.500,1102.500 40.000 0,1 2555.027,1820.039 L2622.013,1840.359 A1172.500,1172.500 0.000 0,0 2649.971,1728.743 Z" style="stroke-linecap:round;fill:rgb(253,174,107);" />
<path d="M2555.027,1820.039 A1102.500,1102.500 40.000 0,1 2518.577,1921.908 L2583.249,1948.696 A1172.500,1172.500 0.000 0,0 2622.013,1840.359 Z" style="stroke-linecap:round;fill:rgb(253,174,107);" />
<path d="M2518.577,1921.908 A1102.500,1102.500 40.000 0,1 2472.318,2019.715 L2534.053,2052.713 A1172.500,1172.500 0.000 0,0 2583.249,1948.696 Z" style="stroke-linecap:round;fill:rgb(253,174,107);" />
<path d="M1608.064,2597.191 A1102.500,1102.500 40.000 0,1 1500.000,2602.500 L1500.000,2672.500 A1172.500,1172.500 0.000 0,0 1614.925,2666.854 Z" style="stroke-linecap:round;fill:rgb(253,174,107);" />
<path d="M1500.000,2602.500 A1102.500,1102.500 40.000 0,1 1391.936,2597.191 L1385.075,2666.854 A1172.500,1172.500 0.000 0,0 1500.000,2672.500 Z" style="stroke-linecap:round;fill:rgb(253,174,107);" />
<path d="M1391.936,2597.191 A1102.500,1102.500 40.000 0,1 1284.913,2581.316 L1271.257,2649.971 A1172.500,1172.500 0.000 0,0 1385.075,2666.854 Z" style="stroke-linecap:round;fill:rgb(253,174,107);" />
<path d="M1284.913,2581.316 A1102.500,1102.500 40.000 0,1 1179.961,2555.027 L1159.641,2622.013 A1172.500,1172.500 0.000 0,0 1271.257,2649.971 Z" style="stroke-linecap:round;fill:rgb(253,174,107);" />
<path d="M1179.961,2555.027 A1102.500,1102.500 40.000 0,1 1078.092,2518.577 L1051.304,2583.249 A1172.500,1172.500 0.000 0,0 1159.641,2622.013 Z" style="stroke-linecap:round;fill:rgb(253,174,107);" />
<path d="M1078.092,2518.577 A1102.500,1102.500 40.000 0,1 980.285,2472.318 L947.287,2534.053 A1172.500,1172.500 0.000 0,0 1051.304,2583.249 Z" style="stroke-linecap:round;fill:rgb(253,174,107);" />
<path d="M980.285,2472.318 A1102.500,1102.500 40.000 0,1 887.484,2416.695 L848.594,2474.898 A1172.500,1172.500 0.000 0,0 947.287,2534.053 Z" style="stroke-linecap:round;fill:rgb(253,174,107);" />
<path d="M887.484,2416.695 A1102.500,1102.500 40.000 0,1 800.581,2352.244 L756.174,2406.355 A1172.500,1172.500 0.000 0,0 848.594,2474.898 Z" style="stroke-linecap:round;fill:rgb(253,174,107);" />
<path d="M800.581,2352.244 A1102.500,1102.500 40.000 0,1 720.415,2279.585 L670.917,2329.083 A1172.500,1172.500 0.000 0,0 756.174,2406.355 Z" style="stroke-linecap:round;fill:rgb(253,174,107);" />
<path d="M720.415,2279.585 A1102.500,1102.500 40.000 0,1 647.756,2199.419 L593.645,2243.826 A1172.500,1172.500 0.000 0,0 670.917,2329.083 Z" style="stroke-linecap:round;fill:rgb(253,174,107);" />
<path d="M647.756,2199.419 A1102.500,1102.500 40.000 0,1 583.305,2112.516 L525.102,2151.406 A1172.500,1172.500 0.000 0,0 593.645,2243.826 Z" style="stroke-linecap:round;fill:rgb(253,174,107);" />
<path d="M583.305,2112.516 A1102.500,1102.500 40.000 0,1 527.682,2019.715 L465.947,2052.713 A1172.500,1172.500 0.000 0,0 525.102,2151.406 Z" style="stroke-linecap:round;fill:rgb(253,174,107);" />
<path d="M527.682,2019.715 A1102.500,1102.500 40.000 0,1 481.423,1921.908 L416.751,1948.696 A1172.500,1172.500 0.000 0,0 465.947,2052.713 Z" style="stroke-linecap:round;fill:rgb(253,174,107);" />
<path d="M481.423,1921.908 A1102.500,1102.500 40.000 0,1 444.973,1820.039 L377.987,1840.359 A1172.500,1172.500 0.000 0,0 416.751,1948.696 Z" style="stroke-linecap:round;fill:rgb(253,174,107);" />
<path d="M444.973,1820.039 A1102.500,1102.500 40.000 0,1 418.684,1715.087 L350.029,1728.743 A1172.500,1172.500 0.000 0,0 377.987,1840.359 Z" style="stroke-linecap:round;fill:rgb(253,174,107);" />
<path d="M418.684,1715.087 A1102.500,1102.500 40.000 0,1 402.809,1608.064 L333.146,1614.925 A1172.500,1172.500 0.000 0,0 350.029,1728.743 Z" style="stroke-linecap:round;fill:rgb(253,174,107);" />
<path d="M402.809,1608.064 A1102.500,1102.500 40.000 0,1 397.500,1500.000 L327.500,1500.000 A1172.500,1172.500 0.000 0,0 333.146,1614.925 Z" style="stroke-linecap:round;fill:rgb(253,174,107);" />
<path d="M397.500,1500.000 A1102.500,1102.500 40.000 0,1 402.809,1391.936 L333.146,1385.075 A1172.500,1172.500 0.000 0,0 327.500,1500.000 Z" style="stroke-linecap:round;fill:rgb(253,174,107);" />
<path d="M402.809,1391.936 A1102.500,1102.500 40.000 0,1 418.684,1284.913 L350.029,1271.257 A1172.500,1172.500 0.000 0,0 333.146,1385.075 Z" style="stroke-linecap:round;fill:rgb(253,174,107);" />
<path d="M418.684,1284.913 A1102.500,1102.500 40.000 0,1 444.973,1179.961 L377.987,1159.641 A1172.500,1172.500 0.000 0,0 350.029,1271.257 Z" style="stroke-linecap:round;fill:rgb(253,174,107);" />
<path d="M444.973,1179.961 A1102.500,1102.500 40.000 0,1 481.423,1078.092 L416.751,1051.304 A1172.500,1172.500 0.000 0,0 377.987,1159.641 Z" style="stroke-linecap:round;fill:rgb(253,174,107);" />
<path d="M481.423,1078.092 A1102.500,1102.500 40.000 0,1 527.682,980.285 L465.947,947.287 A1172.500,1172.500 0.000 0,0 416.751,1051.304 Z" style="stroke-linecap:round;fill:rgb(253,174,107);" />
<path d="M527.682,980.285 A1102.500,1102.500 40.000 0,1 583.305,887.484 L525.102,848.594 A1172.500,1172.500 0.000 0,0 465.947,947.287 Z" style="stroke-linecap:round;fill:rgb(253,174,107);" />
</g>
<defs>
</defs>
</svg>
